<svg width="105" height="60" viewBox="0 0 105 60" fill="none" xmlns="http://www.w3.org/2000/svg">
<circle cx="30" cy="30" r="30" fill="#FFCCCC"/>
<circle cx="75" cy="30" r="30" fill="#FFFAF9"/>
<path d="M31.36 41L24.31 22.22H24.19C24.25 22.84 24.3 23.68 24.34 24.74C24.38 25.78 24.4 26.87 24.4 28.01V41H21.91V19.58H25.9L32.5 37.13H32.62L39.34 19.58H43.3V41H40.63V27.83C40.63 26.79 40.65 25.76 40.69 24.74C40.75 23.72 40.8 22.89 40.84 22.25H40.72L33.58 41H31.36Z" fill="white"/>
<path d="M67.8168 30.26C67.8168 32.48 67.4368 34.42 66.6768 36.08C65.9368 37.72 64.8368 39 63.3768 39.92C61.9168 40.84 60.1068 41.3 57.9468 41.3C55.7268 41.3 53.8768 40.84 52.3968 39.92C50.9368 39 49.8468 37.71 49.1268 36.05C48.4068 34.39 48.0468 32.45 48.0468 30.23C48.0468 28.03 48.4068 26.11 49.1268 24.47C49.8468 22.83 50.9368 21.55 52.3968 20.63C53.8768 19.71 55.7368 19.25 57.9768 19.25C60.1168 19.25 61.9168 19.71 63.3768 20.63C64.8368 21.53 65.9368 22.81 66.6768 24.47C67.4368 26.11 67.8168 28.04 67.8168 30.26ZM50.8968 30.26C50.8968 32.96 51.4668 35.09 52.6068 36.65C53.7468 38.19 55.5268 38.96 57.9468 38.96C60.3868 38.96 62.1668 38.19 63.2868 36.65C64.4068 35.09 64.9668 32.96 64.9668 30.26C64.9668 27.56 64.4068 25.45 63.2868 23.93C62.1668 22.39 60.3968 21.62 57.9768 21.62C55.5568 21.62 53.7668 22.39 52.6068 23.93C51.4668 25.45 50.8968 27.56 50.8968 30.26ZM88.9443 41H86.2443V31.01H75.2643V41H72.5643V19.58H75.2643V28.64H86.2443V19.58H88.9443V41Z" fill="#FFCCCC"/>
</svg>
